                    <svg width="169" height="30" viewBox="0 0 169 30" fill="none" xmlns="http://www.w3.org/2000/svg">
                        <path d="M5.04728 6.33152C5.83466 2.63926 9.09608 0 12.8714 0H159.521C164.476 0 168.24 4.45932 167.407 9.34435L165.021 23.3443C164.365 27.1884 161.034 30 157.134 30H0L5.04728 6.33152Z" fill="#34508F"/>
                        <path d="M36.3324 7.96V22H32.9124V13.58L29.7724 22H27.0124L23.8524 13.56V22H20.4324V7.96H24.4724L28.4124 17.68L32.3124 7.96H36.3324ZM47.5318 19.52H42.2918L41.4518 22H37.8718L42.9518 7.96H46.9118L51.9918 22H48.3718L47.5318 19.52ZM46.6518 16.88L44.9118 11.74L43.1918 16.88H46.6518ZM69.4379 7.96V22H66.0179V13.58L62.8779 22H60.1179L56.9579 13.56V22H53.5379V7.96H57.5779L61.5179 17.68L65.4179 7.96H69.4379ZM78.5373 22.14C77.2173 22.14 76.004 21.8333 74.8973 21.22C73.804 20.6067 72.9306 19.7533 72.2773 18.66C71.6373 17.5533 71.3173 16.3133 71.3173 14.94C71.3173 13.5667 71.6373 12.3333 72.2773 11.24C72.9306 10.1467 73.804 9.29333 74.8973 8.68C76.004 8.06667 77.2173 7.76 78.5373 7.76C79.8573 7.76 81.064 8.06667 82.1573 8.68C83.264 9.29333 84.1306 10.1467 84.7573 11.24C85.3973 12.3333 85.7173 13.5667 85.7173 14.94C85.7173 16.3133 85.3973 17.5533 84.7573 18.66C84.1173 19.7533 83.2506 20.6067 82.1573 21.22C81.064 21.8333 79.8573 22.14 78.5373 22.14ZM78.5373 19.02C79.6573 19.02 80.5506 18.6467 81.2173 17.9C81.8973 17.1533 82.2373 16.1667 82.2373 14.94C82.2373 13.7 81.8973 12.7133 81.2173 11.98C80.5506 11.2333 79.6573 10.86 78.5373 10.86C77.404 10.86 76.4973 11.2267 75.8173 11.96C75.1506 12.6933 74.8173 13.6867 74.8173 14.94C74.8173 16.18 75.1506 17.1733 75.8173 17.92C76.4973 18.6533 77.404 19.02 78.5373 19.02ZM92.6999 22.14C91.6733 22.14 90.7533 21.9733 89.9399 21.64C89.1266 21.3067 88.4733 20.8133 87.9799 20.16C87.4999 19.5067 87.2466 18.72 87.2199 17.8H90.8599C90.9133 18.32 91.0933 18.72 91.3999 19C91.7066 19.2667 92.1066 19.4 92.5999 19.4C93.1066 19.4 93.5066 19.2867 93.7999 19.06C94.0933 18.82 94.2399 18.4933 94.2399 18.08C94.2399 17.7333 94.1199 17.4467 93.8799 17.22C93.6533 16.9933 93.3666 16.8067 93.0199 16.66C92.6866 16.5133 92.2066 16.3467 91.5799 16.16C90.6733 15.88 89.9333 15.6 89.3599 15.32C88.7866 15.04 88.2933 14.6267 87.8799 14.08C87.4666 13.5333 87.2599 12.82 87.2599 11.94C87.2599 10.6333 87.7333 9.61333 88.6799 8.88C89.6266 8.13333 90.8599 7.76 92.3799 7.76C93.9266 7.76 95.1733 8.13333 96.1199 8.88C97.0666 9.61333 97.5733 10.64 97.6399 11.96H93.9399C93.9133 11.5067 93.7466 11.1533 93.4399 10.9C93.1333 10.6333 92.7399 10.5 92.2599 10.5C91.8466 10.5 91.5133 10.6133 91.2599 10.84C91.0066 11.0533 90.8799 11.3667 90.8799 11.78C90.8799 12.2333 91.0933 12.5867 91.5199 12.84C91.9466 13.0933 92.6133 13.3667 93.5199 13.66C94.4266 13.9667 95.1599 14.26 95.7199 14.54C96.2933 14.82 96.7866 15.2267 97.1999 15.76C97.6133 16.2933 97.8199 16.98 97.8199 17.82C97.8199 18.62 97.6133 19.3467 97.1999 20C96.7999 20.6533 96.2133 21.1733 95.4399 21.56C94.6666 21.9467 93.7533 22.14 92.6999 22.14ZM110.025 7.96V10.7H106.305V22H102.885V10.7H99.1646V7.96H110.025ZM118.381 22.14C117.061 22.14 115.848 21.8333 114.741 21.22C113.648 20.6067 112.774 19.7533 112.121 18.66C111.481 17.5533 111.161 16.3133 111.161 14.94C111.161 13.5667 111.481 12.3333 112.121 11.24C112.774 10.1467 113.648 9.29333 114.741 8.68C115.848 8.06667 117.061 7.76 118.381 7.76C119.701 7.76 120.908 8.06667 122.001 8.68C123.108 9.29333 123.974 10.1467 124.601 11.24C125.241 12.3333 125.561 13.5667 125.561 14.94C125.561 16.3133 125.241 17.5533 124.601 18.66C123.961 19.7533 123.094 20.6067 122.001 21.22C120.908 21.8333 119.701 22.14 118.381 22.14ZM118.381 19.02C119.501 19.02 120.394 18.6467 121.061 17.9C121.741 17.1533 122.081 16.1667 122.081 14.94C122.081 13.7 121.741 12.7133 121.061 11.98C120.394 11.2333 119.501 10.86 118.381 10.86C117.248 10.86 116.341 11.2267 115.661 11.96C114.994 12.6933 114.661 13.6867 114.661 14.94C114.661 16.18 114.994 17.1733 115.661 17.92C116.341 18.6533 117.248 19.02 118.381 19.02ZM134.624 22L131.704 16.7H130.884V22H127.464V7.96H133.204C134.31 7.96 135.25 8.15333 136.024 8.54C136.81 8.92667 137.397 9.46 137.784 10.14C138.17 10.8067 138.364 11.5533 138.364 12.38C138.364 13.3133 138.097 14.1467 137.564 14.88C137.044 15.6133 136.27 16.1333 135.244 16.44L138.484 22H134.624ZM130.884 14.28H133.004C133.63 14.28 134.097 14.1267 134.404 13.82C134.724 13.5133 134.884 13.08 134.884 12.52C134.884 11.9867 134.724 11.5667 134.404 11.26C134.097 10.9533 133.63 10.8 133.004 10.8H130.884V14.28ZM143.931 10.7V13.54H148.511V16.18H143.931V19.26H149.111V22H140.511V7.96H149.111V10.7H143.931Z" fill="white"/>
                    </svg>